<mxfile host="app.diagrams.net" modified="2024-01-31T13:14:31.990Z" agent="Mozilla/5.0 (Windows NT 10.0; Win64; x64) AppleWebKit/537.36 (KHTML, like Gecko) Chrome/120.0.0.0 Safari/537.36 OPR/106.0.0.0" version="23.0.2" etag="t8pdzGrFrRyfLd7zUvG0" type="github">
  <diagram name="PÃ¡gina-1" id="-AcDs635WwP6S-xsUKnP">
    <mxGraphModel>
      <root>
        <mxCell id="0" />
        <mxCell id="1" parent="0" />
      </root>
    </mxGraphModel>
  </diagram>
</mxfile>
